<svg width="76" height="85" viewBox="0 0 76 85" fill="none" xmlns="http://www.w3.org/2000/svg">
<path d="M2 26.5914V58.4086C2 61.4923 3.63286 64.3539 6.26857 65.8827L33.7957 81.8632C36.4057 83.3789 39.5943 83.3789 42.2043 81.8632L69.7314 65.8958C72.3671 64.367 74 61.5054 74 58.4217V26.5914C74 23.5077 72.3671 20.6461 69.7314 19.1173L42.2043 3.1368C39.5943 1.62107 36.4057 1.62107 33.7957 3.1368L6.26857 19.1173C3.63286 20.6591 2 23.5077 2 26.5914Z" fill="#00A88E" stroke="white" stroke-width="4"/>
<path d="M56 21.5999H20V22.9063H56V21.5999Z" fill="#4D4D4F"/>
<path d="M44.4287 50.3459C44.4287 48.9088 41.5487 47.733 38.0001 47.733C34.4515 47.733 31.5715 48.9088 31.5715 50.3459C31.5715 51.783 34.4515 52.9588 38.0001 52.9588C41.5487 52.9588 44.4287 51.783 44.4287 50.3459Z" fill="#4D4D4F"/>
<path d="M56 22.9068H20V50.3467H56V22.9068Z" fill="#6D6E71"/>
<path d="M53.4287 25.5198H22.5715V47.733H53.4287V25.5198Z" fill="#44ADE2"/>
<path d="M56.0002 62.1065H40.5717V63.413H56.0002V62.1065Z" fill="#6D6E71"/>
<path d="M56.0002 55.5731H40.5717V62.1054H56.0002V55.5731Z" fill="#4D4D4F"/>
<path d="M54.7141 56.8796H41.857V60.799H54.7141V56.8796Z" fill="#A5CF4C"/>
<path d="M37.9999 28.7211L32.2142 32.0139V38.5342C32.2142 42.5848 37.9999 44.5317 37.9999 44.5317C37.9999 44.5317 43.7856 42.5979 43.7856 38.5342V32.0139L37.9999 28.7211ZM42.4999 38.5342C42.4999 41.0299 39.1699 42.6371 37.9999 43.1336C36.8299 42.6371 33.4999 41.0299 33.4999 38.5342V32.7848L37.9999 30.2238L42.4999 32.7848V38.5342Z" fill="white"/>
<path d="M38 41.2H20V63.4132H38V41.2Z" fill="#6D6E71"/>
<path d="M38 39.8932H20V41.1996H38V39.8932Z" fill="#4D4D4F"/>
<path d="M36.7144 42.5067H21.2858V60.7999H36.7144V42.5067Z" fill="#F04E45"/>
<path d="M28.9999 46.3871L25.1428 48.5823V52.9335C25.1428 55.6383 28.9999 56.9319 28.9999 56.9319C28.9999 56.9319 32.857 55.6383 32.857 52.9335V48.5823L28.9999 46.3871ZM31.5713 52.9335C31.5713 54.1487 29.9513 55.1157 28.9999 55.5338C28.0485 55.1157 26.4285 54.1618 26.4285 52.9335V49.3533L28.9999 47.8898L31.5713 49.3533V52.9335Z" fill="white"/>
</svg>
