<svg width="100" height="20" viewBox="0 0 100 20" fill="none" xmlns="http://www.w3.org/2000/svg">
<path d="M8.71922 4.42764C9.1023 3.10339 9.29384 2.44126 9.5891 2.2739C9.84401 2.1294 10.1561 2.1294 10.411 2.2739C10.7062 2.44126 10.8978 3.10339 11.2809 4.42764L11.781 6.15642C11.884 6.51261 11.9355 6.6907 12.0405 6.82108C12.1332 6.93612 12.2548 7.02446 12.3929 7.07705C12.5493 7.13665 12.7346 7.13061 13.1052 7.11854L14.9039 7.05994C16.2817 7.01505 16.9706 6.99261 17.221 7.2217C17.4372 7.41948 17.5337 7.71627 17.475 8.00335C17.4071 8.33588 16.8366 8.72265 15.6955 9.4962L14.2059 10.506C13.899 10.7141 13.7455 10.8181 13.654 10.9583C13.5732 11.082 13.5267 11.2249 13.5194 11.3725C13.511 11.5397 13.574 11.7141 13.7 12.0628L14.3116 13.7553C14.7801 15.0519 15.0143 15.7001 14.8738 16.0091C14.7525 16.2758 14.5 16.4592 14.2089 16.4922C13.8716 16.5303 13.3275 16.1072 12.2392 15.261L10.8185 14.1564C10.5257 13.9288 10.3794 13.815 10.2178 13.7712C10.0752 13.7326 9.92489 13.7326 9.7823 13.7712C9.6207 13.815 9.47434 13.9288 9.18162 14.1564L7.76088 15.261C6.67258 16.1072 6.12843 16.5303 5.79119 16.4922C5.50003 16.4592 5.24757 16.2758 5.12627 16.0091C4.98578 15.7001 5.22001 15.0519 5.68847 13.7553L6.30003 12.0628C6.42603 11.7141 6.48903 11.5397 6.4807 11.3725C6.47334 11.2249 6.4269 11.082 6.34613 10.9583C6.25458 10.8181 6.10113 10.7141 5.79422 10.506L4.30459 9.4962C3.16353 8.72265 2.59299 8.33588 2.52506 8.00335C2.46641 7.71627 2.56284 7.41948 2.77904 7.2217C3.02945 6.99261 3.71836 7.01505 5.09618 7.05994L6.89488 7.11854C7.26548 7.13061 7.45077 7.13665 7.60723 7.07705C7.74527 7.02446 7.86686 6.93612 7.95953 6.82108C8.06456 6.6907 8.11608 6.51261 8.21912 6.15642L8.71922 4.42764Z" fill="#FFE810"/>
<path d="M28.7192 4.42764C29.1023 3.10339 29.2938 2.44126 29.5891 2.2739C29.844 2.1294 30.1561 2.1294 30.411 2.2739C30.7062 2.44126 30.8978 3.10339 31.2809 4.42764L31.781 6.15642C31.884 6.51261 31.9355 6.6907 32.0405 6.82108C32.1332 6.93612 32.2548 7.02446 32.3929 7.07705C32.5493 7.13665 32.7346 7.13061 33.1052 7.11854L34.9039 7.05994C36.2817 7.01505 36.9706 6.99261 37.221 7.2217C37.4372 7.41948 37.5337 7.71627 37.475 8.00335C37.4071 8.33588 36.8366 8.72265 35.6955 9.4962L34.2059 10.506C33.899 10.7141 33.7455 10.8181 33.654 10.9583C33.5732 11.082 33.5267 11.2249 33.5194 11.3725C33.511 11.5397 33.574 11.7141 33.7 12.0628L34.3116 13.7553C34.7801 15.0519 35.0143 15.7001 34.8738 16.0091C34.7525 16.2758 34.5 16.4592 34.2089 16.4922C33.8716 16.5303 33.3275 16.1072 32.2392 15.261L30.8185 14.1564C30.5257 13.9288 30.3794 13.815 30.2178 13.7712C30.0752 13.7326 29.9249 13.7326 29.7823 13.7712C29.6207 13.815 29.4743 13.9288 29.1816 14.1564L27.7609 15.261C26.6726 16.1072 26.1284 16.5303 25.7912 16.4922C25.5 16.4592 25.2476 16.2758 25.1263 16.0091C24.9858 15.7001 25.22 15.0519 25.6885 13.7553L26.3 12.0628C26.426 11.7141 26.489 11.5397 26.4807 11.3725C26.4733 11.2249 26.4269 11.082 26.3461 10.9583C26.2546 10.8181 26.1011 10.7141 25.7942 10.506L24.3046 9.4962C23.1635 8.72265 22.593 8.33588 22.5251 8.00335C22.4664 7.71627 22.5628 7.41948 22.779 7.2217C23.0294 6.99261 23.7184 7.01505 25.0962 7.05994L26.8949 7.11854C27.2655 7.13061 27.4508 7.13665 27.6072 7.07705C27.7453 7.02446 27.8669 6.93612 27.9595 6.82108C28.0646 6.6907 28.1161 6.51261 28.2191 6.15642L28.7192 4.42764Z" fill="#FFE810"/>
<path d="M48.7192 4.42764C49.1023 3.10339 49.2938 2.44126 49.5891 2.2739C49.844 2.1294 50.1561 2.1294 50.411 2.2739C50.7062 2.44126 50.8978 3.10339 51.2809 4.42764L51.781 6.15642C51.884 6.51261 51.9355 6.6907 52.0405 6.82108C52.1332 6.93612 52.2548 7.02446 52.3929 7.07705C52.5493 7.13665 52.7346 7.13061 53.1052 7.11854L54.9039 7.05994C56.2817 7.01505 56.9706 6.99261 57.221 7.2217C57.4372 7.41948 57.5337 7.71627 57.475 8.00335C57.4071 8.33588 56.8366 8.72265 55.6955 9.4962L54.2059 10.506C53.899 10.7141 53.7455 10.8181 53.654 10.9583C53.5732 11.082 53.5267 11.2249 53.5194 11.3725C53.511 11.5397 53.574 11.7141 53.7 12.0628L54.3116 13.7553C54.7801 15.0519 55.0143 15.7001 54.8738 16.0091C54.7525 16.2758 54.5 16.4592 54.2089 16.4922C53.8716 16.5303 53.3275 16.1072 52.2392 15.261L50.8185 14.1564C50.5257 13.9288 50.3794 13.815 50.2178 13.7712C50.0752 13.7326 49.9249 13.7326 49.7823 13.7712C49.6207 13.815 49.4743 13.9288 49.1816 14.1564L47.7609 15.261C46.6726 16.1072 46.1284 16.5303 45.7912 16.4922C45.5 16.4592 45.2476 16.2758 45.1263 16.0091C44.9858 15.7001 45.22 15.0519 45.6885 13.7553L46.3 12.0628C46.426 11.7141 46.489 11.5397 46.4807 11.3725C46.4733 11.2249 46.4269 11.082 46.3461 10.9583C46.2546 10.8181 46.1011 10.7141 45.7942 10.506L44.3046 9.4962C43.1635 8.72265 42.593 8.33588 42.5251 8.00335C42.4664 7.71627 42.5628 7.41948 42.779 7.2217C43.0294 6.99261 43.7184 7.01505 45.0962 7.05994L46.8949 7.11854C47.2655 7.13061 47.4508 7.13665 47.6072 7.07705C47.7453 7.02446 47.8669 6.93612 47.9595 6.82108C48.0646 6.6907 48.1161 6.51261 48.2191 6.15642L48.7192 4.42764Z" fill="#FFE810"/>
<path d="M68.7192 4.42764C69.1023 3.10339 69.2938 2.44126 69.5891 2.2739C69.844 2.1294 70.1561 2.1294 70.411 2.2739C70.7062 2.44126 70.8978 3.10339 71.2809 4.42764L71.781 6.15642C71.884 6.51261 71.9355 6.6907 72.0405 6.82108C72.1332 6.93612 72.2548 7.02446 72.3929 7.07705C72.5493 7.13665 72.7346 7.13061 73.1052 7.11854L74.9039 7.05994C76.2817 7.01505 76.9706 6.99261 77.221 7.2217C77.4372 7.41948 77.5337 7.71627 77.475 8.00335C77.4071 8.33588 76.8366 8.72265 75.6955 9.4962L74.2059 10.506C73.899 10.7141 73.7455 10.8181 73.654 10.9583C73.5732 11.082 73.5267 11.2249 73.5194 11.3725C73.511 11.5397 73.574 11.7141 73.7 12.0628L74.3116 13.7553C74.7801 15.0519 75.0143 15.7001 74.8738 16.0091C74.7525 16.2758 74.5 16.4592 74.2089 16.4922C73.8716 16.5303 73.3275 16.1072 72.2392 15.261L70.8185 14.1564C70.5257 13.9288 70.3794 13.815 70.2178 13.7712C70.0752 13.7326 69.9249 13.7326 69.7823 13.7712C69.6207 13.815 69.4743 13.9288 69.1816 14.1564L67.7609 15.261C66.6726 16.1072 66.1284 16.5303 65.7912 16.4922C65.5 16.4592 65.2476 16.2758 65.1263 16.0091C64.9858 15.7001 65.22 15.0519 65.6885 13.7553L66.3 12.0628C66.426 11.7141 66.489 11.5397 66.4807 11.3725C66.4733 11.2249 66.4269 11.082 66.3461 10.9583C66.2546 10.8181 66.1011 10.7141 65.7942 10.506L64.3046 9.4962C63.1635 8.72265 62.593 8.33588 62.5251 8.00335C62.4664 7.71627 62.5628 7.41948 62.779 7.2217C63.0294 6.99261 63.7184 7.01505 65.0962 7.05994L66.8949 7.11854C67.2655 7.13061 67.4508 7.13665 67.6072 7.07705C67.7453 7.02446 67.8669 6.93612 67.9595 6.82108C68.0646 6.6907 68.1161 6.51261 68.2191 6.15642L68.7192 4.42764Z" fill="#FFE810"/>
<path d="M88.7192 4.42764C89.1023 3.10339 89.2938 2.44126 89.5891 2.2739C89.844 2.1294 90.1561 2.1294 90.411 2.2739C90.7062 2.44126 90.8978 3.10339 91.2809 4.42764L91.781 6.15642C91.884 6.51261 91.9355 6.6907 92.0405 6.82108C92.1332 6.93612 92.2548 7.02446 92.3929 7.07705C92.5493 7.13665 92.7346 7.13061 93.1052 7.11854L94.9039 7.05994C96.2817 7.01505 96.9706 6.99261 97.221 7.2217C97.4372 7.41948 97.5337 7.71627 97.475 8.00335C97.4071 8.33588 96.8366 8.72265 95.6955 9.4962L94.2059 10.506C93.899 10.7141 93.7455 10.8181 93.654 10.9583C93.5732 11.082 93.5267 11.2249 93.5194 11.3725C93.511 11.5397 93.574 11.7141 93.7 12.0628L94.3116 13.7553C94.7801 15.0519 95.0143 15.7001 94.8738 16.0091C94.7525 16.2758 94.5 16.4592 94.2089 16.4922C93.8716 16.5303 93.3275 16.1072 92.2392 15.261L90.8185 14.1564C90.5257 13.9288 90.3794 13.815 90.2178 13.7712C90.0752 13.7326 89.9249 13.7326 89.7823 13.7712C89.6207 13.815 89.4743 13.9288 89.1816 14.1564L87.7609 15.261C86.6726 16.1072 86.1284 16.5303 85.7912 16.4922C85.5 16.4592 85.2476 16.2758 85.1263 16.0091C84.9858 15.7001 85.22 15.0519 85.6885 13.7553L86.3 12.0628C86.426 11.7141 86.489 11.5397 86.4807 11.3725C86.4733 11.2249 86.4269 11.082 86.3461 10.9583C86.2546 10.8181 86.1011 10.7141 85.7942 10.506L84.3046 9.4962C83.1635 8.72265 82.593 8.33588 82.5251 8.00335C82.4664 7.71627 82.5628 7.41948 82.779 7.2217C83.0294 6.99261 83.7184 7.01505 85.0962 7.05994L86.8949 7.11854C87.2655 7.13061 87.4508 7.13665 87.6072 7.07705C87.7453 7.02446 87.8669 6.93612 87.9595 6.82108C88.0646 6.6907 88.1161 6.51261 88.2191 6.15642L88.7192 4.42764Z" fill="url(#paint0_linear_1373_34)"/>
<defs>
<linearGradient id="paint0_linear_1373_34" x1="97.5" y1="10" x2="81.6667" y2="10" gradientUnits="userSpaceOnUse">
<stop offset="0.458564" stop-color="#1D1D1B" stop-opacity="0.2"/>
<stop offset="0.458664" stop-color="#FFEB2D"/>
</linearGradient>
</defs>
</svg>
